<svg xmlns="http://www.w3.org/2000/svg" xmlns:xlink="http://www.w3.org/1999/xlink" width="512px" height="512px" viewBox="0 0 51 56"><g><title class="active-path">028 - Schizophrenia</title><desc class="active-path">Created with Sketch.</desc><defs class="active-path"></defs><g id="Page-1" stroke="none" stroke-width="1" fill="none" fill-rule="evenodd"><g id="028---Schizophrenia" fill="#000000" fill-rule="nonzero"><path d="M24,11 C24,8.23857625 26.2385763,6 29,6 C31.7614237,6 34,8.23857625 34,11 C33.9950124,12.1192355 33.6111676,13.2037999 32.911,14.077 C35.8358172,14.5262915 37.996332,17.0408776 38,20 L38,28.657 C39.5368271,28.9796594 41.1304792,28.9060162 42.631,28.443 C43.7898054,27.9459904 44.7794896,27.1233958 45.48,26.075 C46.4603802,24.5566538 46.9876471,22.7903095 47,20.983 C47.0523465,18.6998218 46.7768738,16.4209417 46.182,14.216 C45.519678,12.0021927 44.1496888,10.0666439 42.282,8.706 C37.74,5.146 33.89,3.788 29.19,4.026 C26.2333018,4.23989928 23.2957604,4.66565898 20.4,5.3 C17.19,5.947 14.885,6.987 13.553,8.393 C12.344575,9.68890691 11.4126479,11.2172811 10.814,12.885 C10.591,13.49 10.181,15.185 10.042,15.785 C9.683,17.571 9.748,19.992 11.027,21.349 C11.995,22.374 13.608,22.737 15.827,22.421 L17.168,22.23 C18.178,22.085 19.108,21.956 20.004,21.841 L20.004,20 C20.007668,17.0408776 22.1681828,14.5262915 25.093,14.077 C24.3913957,13.2043309 24.0061228,12.1197154 24,11 Z" id="Shape" data-original="#000000" class="active-path" fill="#000000"></path><path d="M31.255,24.1 C31.507,24.347 31.755,24.585 32,24.818 L32,21 C32,20.4477153 32.4477153,20 33,20 C33.5522847,20 34,20.4477153 34,21 L34,26.581 C34.6241017,27.0834878 35.2936618,27.5267366 36,27.905 L36,20 C36,17.790861 34.209139,16 32,16 L26,16 C23.790861,16 22,17.790861 22,20 L22,21.617 C22.7,21.555 23.368,21.517 24,21.504 L24,21 C24,20.4477153 24.4477153,20 25,20 C25.5522847,20 26,20.4477153 26,21 L26,21.6 C27.9889581,21.7973569 29.8470668,22.6813288 31.255,24.1 Z" id="Shape" data-original="#000000" class="active-path" fill="#000000"></path><circle id="Oval" cx="29" cy="11" r="3" data-original="#000000" class="active-path" fill="#000000"></circle><path d="M22.221,48.8 C21.937,48.889 21.372,49.087 20.621,49.35 L19.881,49.609 C21.5351633,51.4378565 22.7424803,53.6255409 23.408,56 L46.086,55.937 C46.062,55.901 46.038,55.865 46.015,55.829 C45.728745,55.4166347 45.4708185,54.9853095 45.243,54.538 C44.7481373,53.5236543 44.3325618,52.4725124 44,51.394 C43.3932482,49.348368 42.9741818,47.2516974 42.748,45.13 C42.3510706,41.7853769 42.8551244,38.3954423 44.208,35.311 C45.0078647,33.6450188 45.9948935,32.0755692 47.15,30.633 C47.732,29.85 48.334,29.04 48.85,28.217 C50.2333498,26.0768582 50.979062,23.58722 51,21.039 C51.056616,18.3674728 50.7296174,15.7016427 50.029,13.123 C49.144084,10.0883558 47.2864648,7.42859074 44.742,5.553 C39.5,1.445 34.646,-0.253 28.988,0.031 C25.8325292,0.251325681 22.6972597,0.700844654 19.607,1.376 C15.515,2.2 12.583,3.6 10.646,5.64 C9.06417889,7.32900789 7.84361758,9.32301103 7.059,11.5 C6.71658121,12.4898777 6.43768112,13.5005982 6.224,14.526 L6.142,14.878 C5.90382693,15.7813253 5.57863918,16.6594327 5.171,17.5 C4.98,17.926 4.789,18.351 4.625,18.786 C4.52326884,19.0055657 4.46876021,19.244041 4.465,19.486 C4.508,19.792 4.89,20.142 5.294,20.512 C6.12174813,21.0934717 6.65628858,22.0056568 6.759,23.012 C6.74233944,23.4891246 6.60765565,23.954677 6.367,24.367 C5.11800686,27.0025658 3.58671075,29.4948198 1.8,31.8 C1.03,32.739 0.874,33.1 0.871,33.255 C1.05527656,33.4283362 1.25214938,33.5877731 1.46,33.732 C1.7231947,33.9153698 2.00114788,34.0765894 2.291,34.214 C3.148,34.65 4.319,35.248 4.552,36.475 C4.69725012,37.2298353 4.60320833,38.0111863 4.283,38.71 C4.113,39.069 3.937,39.382 3.783,39.653 C3.731,39.746 3.673,39.848 3.623,39.941 C4.033,40.27 4.605,40.697 4.845,40.875 C5.06180559,41.0356423 5.20449027,41.2770834 5.24064592,41.5444845 C5.27680157,41.8118856 5.20335925,42.0825495 5.037,42.295 C4.88935427,42.4886369 4.76107253,42.6962993 4.654,42.915 C4.725,42.957 4.797,42.998 4.868,43.038 C5.75150579,43.4186203 6.42493753,44.1658228 6.712,45.084 C6.85545273,45.7933366 6.82318121,46.5269987 6.618,47.221 C6.572,47.428 6.525,47.635 6.498,47.843 C6.44061847,48.4420569 6.52311812,49.0462556 6.739,49.608 C6.95728493,50.5340128 7.86483187,51.1249531 8.8,50.95 C11.7082521,50.2405321 14.5760902,49.3746058 17.391,48.356 L17.397,48.356 C18.363,48.026 19.245,47.717 19.961,47.466 C20.737,47.194 21.324,46.989 21.619,46.896 C25.774,45.596 26.619,44.09 26.593,43.06 C26.580146,42.5080397 27.0170455,42.050101 27.569,42.037 L27.593,42.037 C28.136426,42.0368562 28.5805012,42.4707178 28.593,43.014 C28.652,45.508 26.508,47.456 22.221,48.8 Z M25.021,23.5 C25.014,23.5 25.009,23.5 25.002,23.5 C24.995,23.5 24.986,23.495 24.978,23.495 C22.4528595,23.504341 19.9335702,23.7386001 17.45,24.195 L16.1,24.4 C13.2,24.809 11,24.244 9.566,22.719 C7.297,20.313 7.855,16.478 8.08,15.36 C8.141,15.098 8.624,13.024 8.931,12.192 C9.62386855,10.2688817 10.7022417,8.50755031 12.1,7.016 C13.719,5.3 16.378,4.067 20,3.337 C22.9931067,2.68215951 26.029721,2.24501538 29.086,2.029 C34.28,1.767 38.628,3.302 43.508,7.129 C45.7137973,8.74750645 47.3271012,11.045551 48.1,13.67 C48.749635,16.0613458 49.0527245,18.5335455 49,21.011 C48.985137,23.1871131 48.3518477,25.3141465 47.174,27.144 C46.2072039,28.611706 44.8053707,29.7400961 43.165,30.371 C42.0653751,30.6846628 40.9284459,30.8484748 39.785,30.858 C35.307,30.858 32.443,28.058 29.859,25.53 C28.5722702,24.2485909 26.8348814,23.5220464 25.019,23.506 L25.021,23.5 Z" id="Shape" data-original="#000000" class="active-path" fill="#000000"></path></g></g></g></svg>